<?xml version="1.0" standalone="no"?>
<!DOCTYPE svg PUBLIC "-//W3C//DTD SVG 20010904//EN"
 "http://www.w3.org/TR/2001/REC-SVG-20010904/DTD/svg10.dtd">
<svg version="1.0" xmlns="http://www.w3.org/2000/svg"
 width="700.000000pt" height="700.000000pt" viewBox="0 0 700.000000 700.000000"
 preserveAspectRatio="xMidYMid meet">
<metadata>
Created by potrace 1.14, written by Peter Selinger 2001-2017
</metadata>
<g transform="translate(0.000000,700.000000) scale(0.100000,-0.100000)"
fill="#000000" stroke="none">
<path d="M0 5461 l0 -516 990 0 990 0 0 -375 c1 -206 1 -519 1 -695 l1 -320
72 -67 c80 -76 79 -76 90 34 4 37 14 72 21 78 15 12 326 15 375 3 41 -10 47
-20 55 -98 l7 -75 46 38 c49 41 62 43 127 22 33 -11 213 -195 232 -238 10 -21
12 154 13 836 l0 862 405 0 405 0 -2 513 -3 512 -1912 1 -1913 1 0 -516z"/>
<path d="M3959 5951 c-3 -134 -1 -990 4 -997 3 -5 230 -9 519 -9 l513 0 0 515
0 515 -517 1 -518 2 -1 -27z"/>
<path d="M5129 5959 c-1 -25 -1 -985 0 -1001 1 -10 195 -13 933 -13 l933 0 0
515 0 515 -932 1 c-905 1 -933 1 -934 -17z"/>
<path d="M3959 4773 c-1 -64 -1 -3691 0 -3724 l1 -26 520 0 520 0 0 1898 0
1899 -520 0 -520 0 -1 -47z"/>
<path d="M5129 3958 c-1 -23 -1 -983 0 -1003 1 -13 112 -15 936 -15 l935 0 0
515 c0 405 -3 515 -12 515 -7 1 -428 2 -936 3 -872 2 -922 1 -923 -15z"/>
<path d="M2235 3503 c-8 -7 -17 -43 -21 -80 -3 -38 -8 -75 -10 -83 -1 -8 -3
-18 -3 -21 -1 -4 -13 -9 -28 -12 -22 -4 -41 6 -97 49 -38 30 -75 54 -82 54
-21 0 -184 -166 -184 -187 0 -11 8 -28 18 -39 10 -10 34 -41 54 -67 32 -42 35
-52 26 -72 -11 -25 -28 -31 -118 -40 -101 -10 -96 -2 -94 -170 l1 -110 -67 68
c-52 52 -71 66 -86 61 -20 -7 -83 -51 -132 -92 -15 -12 -43 -34 -63 -48 -36
-25 -37 -25 -73 -8 -26 13 -36 24 -38 43 0 14 -2 31 -3 36 -1 6 -5 42 -9 80
-11 108 -16 129 -30 144 -11 10 -59 14 -194 16 -209 3 -206 4 -217 -85 -3 -30
-8 -66 -10 -80 -2 -14 -6 -49 -10 -78 -5 -37 -12 -55 -24 -59 -9 -2 -26 -10
-38 -15 -19 -9 -35 0 -130 76 -59 47 -116 86 -126 86 -28 0 -277 -248 -277
-276 0 -13 35 -71 80 -133 l81 -109 -18 -36 c-19 -41 -16 -40 -163 -56 -57 -6
-112 -16 -122 -21 -20 -11 -19 -3 -21 -224 -2 -135 0 -162 14 -176 15 -15 36
-20 149 -34 25 -3 54 -8 65 -10 11 -2 30 -4 41 -4 16 -1 26 -12 38 -42 l16
-40 -82 -104 c-91 -115 -100 -141 -59 -178 14 -14 73 -72 130 -131 114 -117
114 -117 181 -67 19 14 37 28 40 31 3 3 33 26 66 52 l62 47 41 -16 c33 -13 41
-21 42 -42 0 -14 2 -35 4 -46 2 -11 8 -60 14 -110 6 -49 16 -95 23 -102 14
-14 347 -20 381 -8 18 8 23 21 32 95 3 25 8 68 11 95 4 28 8 57 10 65 1 8 3
20 3 25 1 11 56 35 78 35 6 0 55 -36 109 -79 55 -44 108 -82 119 -85 14 -4 51
26 152 126 78 78 133 140 133 151 0 11 -36 69 -81 129 l-81 110 17 39 c12 26
25 39 39 40 12 1 32 2 46 4 14 1 53 5 87 9 58 7 78 10 113 18 13 3 15 -46 15
-392 l0 -395 520 0 520 0 0 718 c0 629 -2 715 -14 695 -18 -29 -197 -208 -231
-231 -29 -20 -54 -22 -72 -4 -33 31 -102 87 -108 87 -4 0 -13 -28 -19 -62 -7
-35 -14 -73 -17 -85 -8 -40 -37 -46 -218 -44 -196 1 -190 -1 -200 89 -12 99
-9 97 -83 47 -63 -44 -65 -44 -81 -25 -18 20 -22 21 -186 41 -98 12 -98 12
-112 45 -18 43 -18 43 14 83 15 19 51 63 80 99 28 35 52 68 52 72 0 5 3 15 6
23 3 9 -18 38 -55 77 l-61 63 63 -7 c98 -12 114 -17 127 -41 11 -21 7 -30 -48
-101 l-61 -78 19 -25 c10 -14 52 -59 94 -100 l76 -73 38 28 c20 15 39 30 42
34 3 3 21 17 40 31 29 21 40 24 62 15 23 -8 27 -16 33 -70 4 -34 9 -74 11 -90
2 -15 8 -34 13 -40 11 -13 238 -20 258 -8 11 7 17 35 29 133 5 48 10 59 31 68
27 12 46 2 131 -71 18 -15 41 -28 51 -28 17 0 191 164 191 181 0 4 -25 40 -55
80 -30 40 -55 78 -55 84 0 23 26 46 55 49 133 16 146 18 154 34 14 27 14 249
0 258 -7 4 -50 13 -97 20 -48 7 -88 18 -93 26 -13 19 -11 47 4 63 6 7 23 27
37 45 14 17 33 41 43 52 9 12 17 25 17 31 0 8 -112 131 -155 169 -11 9 -26 17
-33 18 -7 0 -44 -25 -83 -56 -65 -52 -71 -54 -96 -42 -18 9 -28 23 -30 43 -2
17 -6 39 -8 50 -2 11 -4 36 -4 55 -2 61 -7 63 -141 65 -89 1 -126 -2 -135 -12z
m203 -492 c115 -59 137 -204 44 -299 -80 -82 -233 -57 -286 46 -81 157 87 332
242 253z m-1308 -441 c195 -53 357 -226 395 -422 41 -216 -36 -422 -206 -550
-188 -142 -432 -148 -629 -17 -301 201 -324 640 -46 879 62 54 170 104 256
120 54 10 176 4 230 -10z"/>
<path d="M759 2458 c-81 -33 -114 -218 -58 -335 26 -55 73 -78 142 -69 92 10
133 80 130 224 -2 98 -29 154 -84 176 -44 18 -91 19 -130 4z m131 -114 c15
-43 11 -151 -6 -186 -24 -48 -104 -40 -123 13 -13 39 -7 175 10 195 36 44 101
32 119 -22z"/>
<path d="M1152 2423 c2 -25 8 -38 18 -39 8 -1 20 -2 26 -3 8 -1 11 -52 10
-166 -1 -91 2 -166 7 -166 9 -2 43 -2 62 0 13 1 15 31 15 206 l0 205 -71 0
-70 0 3 -37z"/>
<path d="M1088 2003 c-57 -23 -82 -83 -82 -198 0 -75 4 -97 23 -131 13 -22 36
-48 51 -57 35 -21 102 -22 145 -1 105 49 107 330 3 385 -33 18 -99 18 -140 2z
m117 -83 c35 -39 25 -220 -14 -238 -9 -5 -23 -8 -31 -7 -8 1 -23 3 -32 3 -31
3 -47 53 -45 139 2 64 6 86 21 102 25 27 77 28 101 1z"/>
<path d="M666 1995 c-2 -7 -3 -21 -1 -31 2 -11 4 -22 4 -26 1 -5 4 -7 9 -7 41
7 41 6 44 -168 l3 -168 39 0 39 0 -1 175 c-1 96 -1 189 -2 207 l0 31 -64 0
c-43 0 -66 -5 -70 -13z"/>
<path d="M2972 3148 c-24 -33 -42 -61 -40 -63 2 -2 16 -6 31 -9 14 -2 31 -7
37 -11 16 -10 21 16 18 83 l-3 60 -43 -60z"/>
<path d="M2952 2602 c-13 -2 -22 -7 -20 -11 6 -14 73 -100 78 -101 3 0 5 26 6
59 0 63 0 64 -64 53z"/>
<path d="M5128 2035 c-2 -11 -3 -243 -3 -515 l1 -495 937 -1 937 -1 0 516 0
516 -934 0 c-927 0 -935 0 -938 -20z"/>
</g>
</svg>
